<svg width="25" height="25" class="svg-icon svg-icon--repeat is-dark stroke-current fill-current" xmlns="http://www.w3.org/2000/svg" viewBox="0 0 32 32" xmlns:xlink="http://www.w3.org/1999/xlink"><path fill="none" stroke="#050d18" stroke-width="2.25" stroke-linecap="round" stroke-linejoin="round" stroke-miterlimit="10" class="is-stroke" d="M21.5,5.5l3,3l-3,3"></path><path fill="none" stroke="#050d18" stroke-width="2.25" stroke-linecap="round" stroke-linejoin="round" stroke-miterlimit="10" class="is-stroke" d="M9.5,20.5l-3,3l3,3"></path><path fill="none" stroke="#050d18" stroke-width="2.25" stroke-linecap="round" stroke-linejoin="round" stroke-miterlimit="10" class="is-stroke" d="M10,23.5h12c1.7,0,3.2-0.6,4.5-1.5c1.1-0.8,2-2,2.5-3.3c0.3-0.8,0.5-1.7,0.5-2.7s-0.2-1.8-0.5-2.7"></path><path fill="none" stroke="#050d18" stroke-width="2.25" stroke-linecap="round" stroke-linejoin="round" stroke-miterlimit="10" class="is-stroke" d="M22,8.5H10c-1.7,0-3.2,0.6-4.5,1.5c-1.1,0.8-2,2-2.5,3.3c-0.3,0.8-0.5,1.7-0.5,2.7s0.2,1.8,0.5,2.7"></path></svg>