<svg width="32" height="22" class="svg-icon svg-icon--reviewSentence " xmlns="http://www.w3.org/2000/svg" viewBox="0 0 32 22" xmlns:xlink="http://www.w3.org/1999/xlink"><path fill="none" stroke="#050d18" stroke-width="1.175" stroke-linecap="round" stroke-linejoin="round" class="is-stroke" stroke-miterlimit="10" d="M23,8H3C2.4,8,2,8.4,2,9v11c0,0.6,0.4,1,1,1h20c0.6,0,1-0.4,1-1V9C24,8.4,23.6,8,23,8z"></path><path fill="none" stroke="#050d18" stroke-width="1.175" stroke-linecap="round" stroke-linejoin="round" class="is-stroke" stroke-miterlimit="10" d="M4.4,11.9H18"></path><path fill="none" stroke="#050d18" stroke-width="1.175" stroke-linecap="round" stroke-linejoin="round" class="is-stroke" stroke-miterlimit="10" d="M4.4,16.1h9.7"></path><path opacity="0.6" fill="none" stroke="#050d18" stroke-width="1.175" stroke-linecap="round" stroke-linejoin="round" class="is-stroke" stroke-miterlimit="10" enable-background="new" d="M16.3,16.1h3.2"></path><path fill="none" stroke="#050d18" stroke-width="1.175" stroke-linecap="round" stroke-linejoin="round" class="is-stroke" d="M29.5,17.5l-4-5"></path><path fill="none" stroke="#050d18" stroke-width="1.175" stroke-linecap="round" stroke-linejoin="round" class="is-stroke is-static-background" d="M20.9,13.3c3.4,0,6.1-2.7,6.1-6.1S24.3,1,20.9,1c-3.4,0-6.1,2.7-6.1,6.1S17.5,13.3,20.9,13.3z"></path><path fill="none" stroke="#050d18" stroke-width="1.175" stroke-linecap="round" stroke-linejoin="round" class="is-stroke" d="M17.4,7.5l1.8,2.5l5.1-4.8"></path></svg>