<svg width="28" height="28" class="svg-icon svg-icon--audio " xmlns="http://www.w3.org/2000/svg" viewBox="0 0 32 32" xmlns:xlink="http://www.w3.org/1999/xlink"><path fill="none" stroke="#050d18" stroke-width="1.175" stroke-linecap="round" stroke-linejoin="round" stroke-miterlimit="10" class="is-stroke is-dynamic-background" d="M5.5,19.5h2v-8h-2c-1.1,0-2,0.9-2,2v4C3.5,18.6,4.4,19.5,5.5,19.5z"></path><path fill="none" stroke="#050d18" stroke-width="1.175" stroke-linecap="round" stroke-linejoin="round" stroke-miterlimit="10" class="is-stroke is-dynamic-background" d="M14.4,24.4l-6.9-4.9v-8l6.9-4.9c0.7-0.5,1.6,0,1.6,0.8v16.1C16,24.4,15.1,24.9,14.4,24.4z"></path><path fill="none" stroke="#050d18" stroke-width="1.175" stroke-linecap="round" stroke-linejoin="round" stroke-miterlimit="10" class="is-stroke" d="M18.9,8.6c2.7,1.1,4.6,3.8,4.6,6.9s-1.9,5.8-4.6,6.9"></path><path fill="none" stroke="#050d18" stroke-width="1.175" stroke-linecap="round" stroke-linejoin="round" stroke-miterlimit="10" class="is-stroke" d="M22.2,25.8c3.5-2.1,5.8-5.9,5.8-10.3c0-4.4-2.3-8.2-5.8-10.3"></path></svg>