<?xml version="1.0" encoding="utf-8"?>
<!-- Generator: Adobe Illustrator 26.3.1, SVG Export Plug-In . SVG Version: 6.00 Build 0)  -->
<svg version="1.1" id="livetype" xmlns="http://www.w3.org/2000/svg" xmlns:xlink="http://www.w3.org/1999/xlink" x="0px" y="0px"
	 viewBox="0 0 155 60" style="enable-background:new 0 0 155 60;" xml:space="preserve">
<style type="text/css">
	.st0{fill:#FFFFFF;fill-opacity:0;}
	.st1{fill:#A6A6A6;}
	.st2{fill:#FFFFFF;}
</style>
<rect class="st0" width="155" height="60"/>
<g>
	<g>
		<path class="st1" d="M135.5,10H18.5c-0.4,0-0.7,0-1.1,0c-0.3,0-0.6,0-0.9,0c-0.7,0-1.3,0.1-2,0.2c-0.7,0.1-1.3,0.3-1.9,0.6
			C12,11.1,11.5,11.5,11,12c-0.5,0.5-0.9,1-1.2,1.6c-0.3,0.6-0.5,1.2-0.6,1.9c-0.1,0.7-0.2,1.3-0.2,2c0,0.3,0,0.6,0,0.9v23.1
			c0,0.3,0,0.6,0,0.9c0,0.7,0.1,1.3,0.2,2c0.1,0.7,0.3,1.3,0.6,1.9c0.3,0.6,0.7,1.1,1.2,1.6c0.5,0.5,1,0.9,1.6,1.2
			c0.6,0.3,1.2,0.5,1.9,0.6c0.7,0.1,1.3,0.2,2,0.2c0.3,0,0.6,0,0.9,0c0.4,0,0.7,0,1.1,0h116.9c0.4,0,0.7,0,1.1,0c0.3,0,0.6,0,0.9,0
			c0.7,0,1.3-0.1,2-0.2c0.7-0.1,1.3-0.3,1.9-0.6c0.6-0.3,1.1-0.7,1.6-1.2c0.5-0.5,0.9-1,1.2-1.6c0.3-0.6,0.5-1.2,0.6-1.9
			c0.1-0.7,0.2-1.3,0.2-2c0-0.3,0-0.6,0-0.9c0-0.4,0-0.7,0-1.1V19.5c0-0.4,0-0.7,0-1.1c0-0.3,0-0.6,0-0.9c0-0.7-0.1-1.3-0.2-2
			c-0.1-0.7-0.3-1.3-0.6-1.9c-0.6-1.2-1.6-2.2-2.8-2.8c-0.6-0.3-1.2-0.5-1.9-0.6c-0.7-0.1-1.3-0.2-2-0.2c-0.3,0-0.6,0-0.9,0
			C136.2,10,135.8,10,135.5,10L135.5,10z"/>
		<path d="M17.5,49.1c-0.3,0-0.6,0-0.9,0c-0.6,0-1.3-0.1-1.9-0.2c-0.6-0.1-1.1-0.3-1.7-0.5c-0.5-0.3-1-0.6-1.4-1
			c-0.4-0.4-0.8-0.9-1-1.4c-0.3-0.5-0.4-1.1-0.5-1.7c-0.1-0.6-0.2-1.2-0.2-1.9c0-0.2,0-0.9,0-0.9V18.4c0,0,0-0.7,0-0.9
			c0-0.6,0.1-1.3,0.2-1.9c0.1-0.6,0.3-1.1,0.5-1.7c0.3-0.5,0.6-1,1-1.4c0.4-0.4,0.9-0.8,1.4-1c0.5-0.3,1.1-0.4,1.7-0.5
			c0.6-0.1,1.2-0.2,1.9-0.2l0.9,0h119.1l0.9,0c0.6,0,1.2,0.1,1.9,0.2c0.6,0.1,1.1,0.3,1.7,0.5c1,0.5,1.9,1.4,2.4,2.4
			c0.3,0.5,0.4,1.1,0.5,1.6c0.1,0.6,0.2,1.3,0.2,1.9c0,0.3,0,0.6,0,0.9c0,0.4,0,0.7,0,1.1v20.9c0,0.4,0,0.7,0,1.1c0,0.3,0,0.6,0,0.9
			c0,0.6-0.1,1.2-0.2,1.9c-0.1,0.6-0.3,1.1-0.5,1.7c-0.3,0.5-0.6,1-1,1.4c-0.4,0.4-0.9,0.8-1.4,1c-0.5,0.3-1.1,0.5-1.7,0.5
			c-0.6,0.1-1.2,0.2-1.9,0.2c-0.3,0-0.6,0-0.9,0l-1.1,0L17.5,49.1z"/>
	</g>
	<g id="_Group_">
		<g id="_Group_2">
			<g id="_Group_3">
				<path id="_Path_" class="st2" d="M36.1,30.3c0-1.7,0.9-3.3,2.4-4.2c-0.9-1.3-2.4-2.1-4-2.2c-1.7-0.2-3.3,1-4.2,1
					c-0.9,0-2.2-1-3.6-1c-1.9,0.1-3.6,1.1-4.5,2.7c-1.9,3.3-0.5,8.3,1.4,11c0.9,1.3,2,2.8,3.4,2.8c1.4-0.1,1.9-0.9,3.6-0.9
					c1.7,0,2.1,0.9,3.6,0.9c1.5,0,2.4-1.3,3.3-2.7c0.7-0.9,1.2-2,1.5-3.1C37.2,34,36.1,32.2,36.1,30.3z"/>
				<path id="_Path_2" class="st2" d="M33.3,22.2c0.8-1,1.2-2.2,1.1-3.5c-1.2,0.1-2.4,0.7-3.2,1.7c-0.8,0.9-1.2,2.1-1.1,3.4
					C31.3,23.8,32.5,23.2,33.3,22.2z"/>
			</g>
		</g>
		<g>
			<path class="st2" d="M53.6,37.1h-4.7l-1.1,3.4h-2l4.5-12.4h2.1l4.5,12.4h-2L53.6,37.1z M49.3,35.6h3.8l-1.8-5.4h-0.1L49.3,35.6z"
				/>
			<path class="st2" d="M66.4,36c0,2.8-1.5,4.6-3.8,4.6c-1.2,0.1-2.3-0.6-2.8-1.6h0v4.5h-1.9v-12h1.8v1.5h0c0.6-1,1.7-1.6,2.9-1.6
				C64.9,31.3,66.4,33.2,66.4,36z M64.5,36c0-1.8-0.9-3-2.4-3c-1.4,0-2.4,1.2-2.4,3c0,1.8,1,3,2.4,3C63.6,39,64.5,37.8,64.5,36z"/>
			<path class="st2" d="M76.4,36c0,2.8-1.5,4.6-3.8,4.6c-1.2,0.1-2.3-0.6-2.8-1.6h0v4.5h-1.9v-12h1.8v1.5h0c0.6-1,1.7-1.6,2.9-1.6
				C74.9,31.3,76.4,33.2,76.4,36z M74.5,36c0-1.8-0.9-3-2.4-3c-1.4,0-2.4,1.2-2.4,3c0,1.8,1,3,2.4,3C73.5,39,74.5,37.8,74.5,36
				L74.5,36z"/>
			<path class="st2" d="M83,37c0.1,1.2,1.3,2,3,2c1.6,0,2.7-0.8,2.7-1.9c0-1-0.7-1.5-2.3-1.9l-1.6-0.4c-2.3-0.6-3.3-1.6-3.3-3.3
				c0-2.1,1.9-3.6,4.5-3.6c2.6,0,4.4,1.5,4.5,3.6h-1.9c-0.1-1.2-1.1-2-2.6-2s-2.5,0.8-2.5,1.9c0,0.9,0.7,1.4,2.3,1.8l1.4,0.3
				c2.5,0.6,3.6,1.6,3.6,3.4c0,2.3-1.9,3.8-4.8,3.8c-2.8,0-4.6-1.4-4.7-3.7L83,37z"/>
			<path class="st2" d="M94.6,29.3v2.1h1.7v1.5h-1.7v5c0,0.8,0.3,1.1,1.1,1.1c0.2,0,0.4,0,0.6,0v1.5c-0.3,0.1-0.7,0.1-1,0.1
				c-1.8,0-2.5-0.7-2.5-2.4v-5.2h-1.3v-1.5h1.3v-2.1H94.6z"/>
			<path class="st2" d="M97.3,36c0-2.8,1.7-4.6,4.3-4.6c2.6,0,4.3,1.8,4.3,4.6c0,2.9-1.7,4.6-4.3,4.6C99,40.6,97.3,38.8,97.3,36z
				 M104,36c0-2-0.9-3.1-2.4-3.1S99.2,34,99.2,36c0,2,0.9,3.1,2.4,3.1S104,37.9,104,36L104,36z"/>
			<path class="st2" d="M107.5,31.4h1.8V33h0c0.2-1,1.2-1.7,2.2-1.6c0.2,0,0.4,0,0.6,0.1v1.7c-0.3-0.1-0.6-0.1-0.8-0.1
				c-1,0-1.9,0.8-1.9,1.8c0,0.1,0,0.2,0,0.3v5.4h-1.9L107.5,31.4z"/>
			<path class="st2" d="M120.7,37.8c-0.2,1.6-1.9,2.8-3.9,2.8c-2.6,0-4.3-1.8-4.3-4.6c0-2.8,1.6-4.7,4.2-4.7c2.5,0,4.1,1.7,4.1,4.5
				v0.6h-6.4v0.1c-0.1,1.3,0.8,2.4,2.1,2.6c0.1,0,0.2,0,0.3,0c0.9,0.1,1.8-0.4,2.1-1.3L120.7,37.8z M114.4,35.1h4.5
				c0.1-1.2-0.9-2.2-2.1-2.3c-0.1,0-0.1,0-0.2,0C115.4,32.8,114.4,33.8,114.4,35.1C114.4,35.1,114.4,35.1,114.4,35.1z"/>
		</g>
	</g>
	<g id="_Group_4">
		<g>
			<path class="st2" d="M49.1,18.7c1.5-0.1,2.7,1,2.8,2.4c0,0.2,0,0.3,0,0.5c0,1.9-1,3-2.8,3H47v-6H49.1z M47.9,23.9H49
				c1,0.1,1.9-0.7,2-1.8c0-0.1,0-0.3,0-0.4c0.1-1-0.6-2-1.6-2.1c-0.1,0-0.2,0-0.4,0h-1.1V23.9z"/>
			<path class="st2" d="M53,22.4c-0.1-1.2,0.7-2.2,1.9-2.3c1.2-0.1,2.2,0.7,2.3,1.9c0,0.1,0,0.3,0,0.4c0.1,1.2-0.7,2.2-1.9,2.3
				c-1.2,0.1-2.2-0.7-2.3-1.9C52.9,22.7,52.9,22.6,53,22.4z M56.3,22.4c0-1-0.4-1.5-1.2-1.5c-0.8,0-1.2,0.6-1.2,1.5
				c0,1,0.4,1.6,1.2,1.6C55.9,24,56.3,23.4,56.3,22.4L56.3,22.4z"/>
			<path class="st2" d="M62.9,24.7h-0.9L61,21.4h-0.1L60,24.7h-0.9l-1.2-4.5h0.9l0.8,3.4h0.1l0.9-3.4h0.9l0.9,3.4h0.1l0.8-3.4h0.9
				L62.9,24.7z"/>
			<path class="st2" d="M65.1,20.2H66v0.7h0.1c0.2-0.5,0.8-0.8,1.3-0.8c0.8-0.1,1.5,0.5,1.6,1.4c0,0.1,0,0.2,0,0.3v2.9h-0.9V22
				c0-0.7-0.3-1.1-1-1.1c-0.6,0-1.1,0.4-1.1,1c0,0.1,0,0.1,0,0.2v2.6h-0.9L65.1,20.2z"/>
			<path class="st2" d="M70.4,18.4h0.9v6.3h-0.9V18.4z"/>
			<path class="st2" d="M72.5,22.4c-0.1-1.2,0.7-2.2,1.9-2.3c1.2-0.1,2.2,0.7,2.3,1.9c0,0.1,0,0.3,0,0.4c0.1,1.2-0.7,2.2-1.9,2.3
				c-1.2,0.1-2.2-0.7-2.3-1.9C72.5,22.7,72.5,22.6,72.5,22.4z M75.8,22.4c0-1-0.4-1.5-1.2-1.5c-0.8,0-1.2,0.6-1.2,1.5
				c0,1,0.4,1.6,1.2,1.6C75.4,24,75.8,23.4,75.8,22.4z"/>
			<path class="st2" d="M77.7,23.4c0-0.8,0.6-1.3,1.7-1.3l1.2-0.1v-0.4c0-0.5-0.3-0.7-0.9-0.7c-0.5,0-0.8,0.2-0.9,0.5h-0.9
				c0.1-0.8,0.8-1.3,1.8-1.3c1.1,0,1.8,0.6,1.8,1.5v3.1h-0.9v-0.6h-0.1c-0.3,0.5-0.8,0.7-1.4,0.7c-0.7,0.1-1.4-0.5-1.5-1.2
				C77.7,23.5,77.7,23.5,77.7,23.4z M80.6,23v-0.4l-1.1,0.1c-0.6,0-0.9,0.3-0.9,0.6c0,0.4,0.4,0.6,0.8,0.6
				C80,24.1,80.5,23.7,80.6,23C80.6,23.1,80.6,23.1,80.6,23z"/>
			<path class="st2" d="M82.6,22.4c0-1.4,0.7-2.3,1.9-2.3c0.6,0,1.1,0.3,1.4,0.8h0.1v-2.5h0.9v6.3H86V24h-0.1
				c-0.3,0.5-0.8,0.8-1.4,0.8C83.4,24.8,82.6,23.9,82.6,22.4z M83.5,22.4c0,1,0.5,1.5,1.2,1.5c0.7,0,1.2-0.6,1.2-1.5
				c0-0.9-0.5-1.5-1.2-1.5C84,20.9,83.5,21.5,83.5,22.4L83.5,22.4z"/>
			<path class="st2" d="M90.5,22.4c-0.1-1.2,0.7-2.2,1.9-2.3c1.2-0.1,2.2,0.7,2.3,1.9c0,0.1,0,0.3,0,0.4c0.1,1.2-0.7,2.2-1.9,2.3
				c-1.2,0.1-2.2-0.7-2.3-1.9C90.5,22.7,90.5,22.6,90.5,22.4z M93.8,22.4c0-1-0.4-1.5-1.2-1.5c-0.8,0-1.2,0.6-1.2,1.5
				c0,1,0.4,1.6,1.2,1.6C93.4,24,93.8,23.4,93.8,22.4z"/>
			<path class="st2" d="M96,20.2h0.9v0.7h0.1c0.2-0.5,0.8-0.8,1.3-0.8c0.8-0.1,1.5,0.5,1.6,1.4c0,0.1,0,0.2,0,0.3v2.9h-0.9V22
				c0-0.7-0.3-1.1-1-1.1c-0.6,0-1.1,0.4-1.1,1c0,0.1,0,0.1,0,0.2v2.6H96V20.2z"/>
			<path class="st2" d="M104.8,19.1v1.1h1V21h-1v2.3c0,0.5,0.2,0.7,0.6,0.7c0.1,0,0.2,0,0.3,0v0.7c-0.2,0-0.3,0-0.5,0
				c-1,0-1.4-0.3-1.4-1.2V21h-0.7v-0.7h0.7v-1.1H104.8z"/>
			<path class="st2" d="M107,18.4h0.9v2.5h0.1c0.2-0.5,0.8-0.9,1.4-0.8c0.8,0,1.5,0.6,1.6,1.4c0,0.1,0,0.2,0,0.3v2.9H110V22
				c0-0.7-0.3-1.1-1-1.1c-0.6,0-1.1,0.4-1.1,1c0,0.1,0,0.1,0,0.2v2.6H107L107,18.4z"/>
			<path class="st2" d="M116,23.5c-0.2,0.8-1.1,1.4-2,1.3c-1.1,0-2.1-0.9-2.1-2c0-0.1,0-0.2,0-0.3c-0.2-1.1,0.6-2.2,1.8-2.3
				c0.1,0,0.2,0,0.3,0c1.3,0,2,0.9,2,2.3v0.3h-3.2v0c-0.1,0.7,0.4,1.2,1.1,1.3c0,0,0.1,0,0.1,0c0.4,0.1,0.9-0.2,1.1-0.5L116,23.5z
				 M112.9,22h2.3c0-0.6-0.4-1.1-1-1.2c0,0-0.1,0-0.1,0C113.4,20.9,112.9,21.4,112.9,22C112.9,22,112.9,22,112.9,22L112.9,22z"/>
		</g>
	</g>
</g>
</svg>
