<svg xmlns="http://www.w3.org/2000/svg" width="25" height="25" viewBox="0 0 32 32">
  <path fill="none" stroke="#050d18" stroke-width="2" stroke-linecap="round" stroke-linejoin="round" d="M24.2,21.5H8.8c-1,0-1.8-0.8-1.8-1.8v-7.8c0-1,0.8-1.8,1.8-1.8h15.4c1,0,1.8,0.8,1.8,1.8v7.8C26,20.7,25.2,21.5,24.2,21.5z"/>
  <polyline fill="none" stroke="#050d18" stroke-width="2" stroke-linecap="round" stroke-linejoin="round" points="30.5,7 25,7 25,1.5"/>
  <polyline fill="none" stroke="#050d18" stroke-width="2" stroke-linecap="round" stroke-linejoin="round" points="7.5,30.5 7.5,24.5 1.5,24.5"/>
  <line fill="none" stroke="#050d18" stroke-width="2" stroke-linecap="round" stroke-linejoin="round" x1="9.5" y1="13.5" x2="23" y2="13.5"/>
  <line fill="none" stroke="#050d18" stroke-width="2" stroke-linecap="round" stroke-linejoin="round" x1="9.5" y1="17.5" x2="18" y2="17.5"/>
  <line fill="none" stroke="#050d18" stroke-width="2" stroke-linecap="round" stroke-linejoin="round" x1="20" y1="17.5" x2="23" y2="17.5"/>
  <line fill="none" stroke="#050d18" stroke-width="2" stroke-linecap="round" stroke-linejoin="round" x1="25" y1="7" x2="30.5" y2="1.5"/>
  <line fill="none" stroke="#050d18" stroke-width="2" stroke-linecap="round" stroke-linejoin="round" x1="7.5" y1="24.5" x2="1.5" y2="30.5"/>
</svg>
