<svg width="16" height="16" class="svg-icon svg-icon--course-s " xmlns="http://www.w3.org/2000/svg" viewBox="0 0 16 16" xmlns:xlink="http://www.w3.org/1999/xlink"><path fill="none" stroke="#050d18" stroke-width="1.175" stroke-linecap="round" stroke-linejoin="round" stroke-miterlimit="10" class="is-stroke" d="M9.5,13.5h1c0.6,0,1-0.4,1-1v-9c0-0.6-0.4-1-1-1h-7c-0.6,0-1,0.4-1,1v1"></path><path fill="none" stroke="#050d18" stroke-width="1.175" stroke-linecap="round" stroke-linejoin="round" stroke-miterlimit="10" class="is-stroke" d="M8.5,4.5h-7c-0.6,0-1,0.4-1,1v9c0,0.6,0.4,1,1,1h7c0.6,0,1-0.4,1-1v-9C9.5,4.9,9.1,4.5,8.5,4.5z"></path><path fill="none" stroke="#050d18" stroke-width="1.175" stroke-linecap="round" stroke-linejoin="round" stroke-miterlimit="10" class="is-stroke is-dynamic-background" d="M11.5,11.5h1c0.6,0,1-0.4,1-1v-9c0-0.6-0.4-1-1-1h-7c-0.6,0-1,0.4-1,1v1"></path><rect x="2.5" y="6.5" fill="none" stroke="#050d18" stroke-width="1.175" stroke-linecap="round" stroke-linejoin="round" stroke-miterlimit="10" class="is-stroke" width="5" height="2"></rect><line fill="none" stroke="#050d18" stroke-width="1.175" stroke-linecap="round" stroke-linejoin="round" stroke-miterlimit="10" class="is-stroke" x1="2" y1="10.5" x2="8" y2="10.5"></line><line fill="none" stroke="#050d18" stroke-width="1.175" stroke-linecap="round" stroke-linejoin="round" stroke-miterlimit="10" class="is-stroke" x1="2" y1="12.5" x2="6" y2="12.5"></line></svg>