<svg width="32" height="32" class="svg-icon svg-icon--link " xmlns="http://www.w3.org/2000/svg" viewBox="0 0 32 32" xmlns:xlink="http://www.w3.org/1999/xlink"><path fill="none" stroke="#050d18" stroke-width="1" stroke-linecap="round" stroke-linejoin="round" stroke-miterlimit="10" class="is-stroke" d="M14.9,13.5c-1.8,1.8-1.8,4.6,0,6.4l0,0c1.8,1.8,4.6,1.8,6.4,0l7.1-7.1c1.8-1.8,1.8-4.6,0-6.4l0,0c-1.8-1.8-4.6-1.8-6.4,0l-3.3,3.3"></path><path fill="none" stroke="#050d18" stroke-width="1" stroke-linecap="round" stroke-linejoin="round" stroke-miterlimit="10" class="is-stroke" d="M17.1,18.5c1.8-1.8,1.8-4.6,0-6.4l0,0c-1.8-1.8-4.6-1.8-6.4,0l-7.1,7.1c-1.8,1.8-1.8,4.6,0,6.4l0,0c1.8,1.8,4.6,1.8,6.4,0l3.9-3.9"></path></svg>