<svg width="16" height="16" class="svg-icon svg-icon--link-s " xmlns="http://www.w3.org/2000/svg" viewBox="0 0 16 16" xmlns:xlink="http://www.w3.org/1999/xlink"><path fill="none" stroke="#050d18" stroke-width="1.175" stroke-linecap="round" stroke-linejoin="round" stroke-miterlimit="10" class="is-stroke" d="M9.3,8.3c0.3-0.9,0.1-1.9-0.6-2.6l0,0c-1-1-2.6-1-3.5,0L1.7,9.1c-1,1-1,2.6,0,3.5l0,0c1,1,2.6,1,3.5,0l1.9-1.9"></path><path fill="none" stroke="#050d18" stroke-width="1.175" stroke-linecap="round" stroke-linejoin="round" stroke-miterlimit="10" class="is-stroke" d="M7.1,7.1C6.8,7.9,7,9,7.7,9.7l0,0c1,1,2.6,1,3.5,0l3.4-3.4c1-1,1-2.6,0-3.5l0,0c-1-1-2.6-1-3.5,0L9.3,4.6"></path></svg>