<svg width="16"
     height="16"
     class="svg-icon svg-icon--trash"
     xmlns="http://www.w3.org/2000/svg"
     viewBox="0 0 32 32">
  <path fill="none" stroke="#ffffff" stroke-width="2" stroke-linecap="round" stroke-linejoin="round"
        d="M9.8,30h12.4c1,0,1.9-0.8,2-1.8L26,11H6l1.8,17.2C7.9,29.2,8.8,30,9.8,30z" />
  <path fill="none" stroke="#ffffff" stroke-width="2" stroke-linecap="round" stroke-linejoin="round"
        d="M4.5,11h23c0.3,0,0.5-0.2,0.5-0.5V8c0-1.1-0.9-2-2-2H6C4.9,6,4,6.9,4,8v2.5C4,10.8,4.2,11,4.5,11z" />
  <path fill="none" stroke="#ffffff" stroke-width="2" stroke-linecap="round" stroke-linejoin="round"
        d="M12,6h8V5c0-1.1-0.9-2-2-2h-4c-1.1,0-2,0.9-2,2V6z" />
  <line fill="none" stroke="#ffffff" stroke-width="2" stroke-linecap="round" stroke-linejoin="round"
        x1="11" y1="14" x2="11" y2="27" />
  <line fill="none" stroke="#ffffff" stroke-width="2" stroke-linecap="round" stroke-linejoin="round"
        x1="15" y1="15" x2="15" y2="25" />
  <line fill="none" stroke="#ffffff" stroke-width="2" stroke-linecap="round" stroke-linejoin="round"
        x1="20" y1="14" x2="20" y2="27" />
</svg>
