<svg width="14" height="17" class="svg-icon svg-icon--grammarGuide-s " xmlns="http://www.w3.org/2000/svg" viewBox="0 0 14 17" xmlns:xlink="http://www.w3.org/1999/xlink"><g transform="translate(-30)"><path d="M42.6,2.5h-9.2c-0.5,0-0.9,0.3-0.9,0.8c0,0,0,0.1,0,0.1v12.1c0,0.5,0.3,0.9,0.8,0.9c0,0,0.1,0,0.1,0h9.2c0.5,0,0.9-0.3,0.9-0.8c0,0,0-0.1,0-0.1V3.4c0-0.5-0.3-0.9-0.8-0.9C42.7,2.5,42.6,2.5,42.6,2.5z" fill="none" stroke="#050d18" stroke-width="1.175" stroke-linecap="round" stroke-linejoin="round" class="is-stroke" stroke-miterlimit="10"></path></g><path d="M1.5,14.5c-0.5,0-1-0.4-1-0.9c0,0,0-0.1,0-0.1v-12c0-0.5,0.4-1,0.9-1c0,0,0.1,0,0.1,0h9c0.5,0,1,0.4,1,0.9c0,0,0,0.1,0,0.1" stroke-miterlimit="10" fill="none" stroke="#050d18" stroke-width="1.175" stroke-linecap="round" stroke-linejoin="round" class="is-stroke"></path><ellipse cx="5" cy="6" rx=".5" ry=".5" stroke-miterlimit="10" transform="translate(0 -.5)" fill="none" stroke="#050d18" stroke-width="1.175" stroke-linecap="round" stroke-linejoin="round" class="is-stroke"></ellipse><ellipse cx="5" cy="10" rx=".5" ry=".5" stroke-miterlimit="10" transform="translate(0 -.5)" fill="none" stroke="#050d18" stroke-width="1.175" stroke-linecap="round" stroke-linejoin="round" class="is-stroke"></ellipse><line x1="8" y1="4.5" x2="12" y2="4.5" stroke-miterlimit="10" fill="none" stroke="#050d18" stroke-width="1.175" stroke-linecap="round" stroke-linejoin="round" class="is-stroke"></line><line x1="8" y1="6.5" x2="10" y2="6.5" stroke-miterlimit="10" fill="none" stroke="#050d18" stroke-width="1.175" stroke-linecap="round" stroke-linejoin="round" class="is-stroke"></line><line x1="8" y1="9.5" x2="12" y2="9.5" stroke-miterlimit="10" fill="none" stroke="#050d18" stroke-width="1.175" stroke-linecap="round" stroke-linejoin="round" class="is-stroke"></line><line x1="8" y1="11.5" x2="10" y2="11.5" stroke-miterlimit="10" fill="none" stroke="#050d18" stroke-width="1.175" stroke-linecap="round" stroke-linejoin="round" class="is-stroke"></line><path d="M8,14l1,1l3-3" stroke-miterlimit="10" fill="none" stroke="#050d18" stroke-width="1.175" stroke-linecap="round" stroke-linejoin="round" class="is-stroke"></path></svg>