<svg width="16" height="16" class="svg-icon svg-icon--cog-s " xmlns="http://www.w3.org/2000/svg" viewBox="0 0 16 16" xmlns:xlink="http://www.w3.org/1999/xlink"><path stroke-miterlimit="10" class="is-stroke is-dynamic-background" fill="none" stroke="#050d18" stroke-width="1.175" stroke-linecap="round" stroke-linejoin="round" d="M14,8c0-0.7,0.4-1.4,1.1-1.6c0.3-0.1,0.4-0.4,0.4-0.7c-0.1-0.4-0.3-0.8-0.5-1.2c-0.1-0.3-0.5-0.4-0.8-0.3c-0.9,0.4-2-0.1-2.3-1c-0.2-0.4-0.2-0.9,0-1.3c0.1-0.3,0-0.6-0.3-0.8c-0.4-0.2-0.8-0.4-1.2-0.5c-0.3-0.1-0.6,0.1-0.7,0.4C9.3,1.8,8.2,2.2,7.3,1.8C6.9,1.7,6.5,1.3,6.4,0.9C6.2,0.6,5.9,0.5,5.6,0.6C5.2,0.7,4.8,0.9,4.4,1.1C4.1,1.2,4,1.5,4.1,1.8c0.4,0.9-0.1,2-1,2.3c-0.4,0.2-0.9,0.2-1.3,0C1.5,4,1.2,4.1,1.1,4.4C0.9,4.8,0.7,5.2,0.6,5.6C0.5,5.9,0.6,6.2,0.9,6.4c0.9,0.4,1.3,1.4,0.9,2.4C1.7,9.1,1.3,9.5,0.9,9.6c-0.3,0.1-0.4,0.4-0.4,0.7c0.1,0.4,0.3,0.8,0.5,1.2c0.1,0.3,0.5,0.4,0.8,0.3c0.9-0.4,2,0.1,2.3,1c0.2,0.4,0.2,0.9,0,1.3c-0.1,0.3,0,0.6,0.3,0.8c0.4,0.2,0.8,0.4,1.2,0.5c0.3,0.1,0.6-0.1,0.7-0.4c0.4-0.9,1.4-1.3,2.4-0.9c0.4,0.2,0.8,0.5,0.9,0.9c0.1,0.3,0.4,0.4,0.7,0.4c0.4-0.1,0.8-0.3,1.2-0.5c0.3-0.1,0.4-0.5,0.3-0.8c-0.4-0.9,0.1-2,1-2.3c0.4-0.2,0.9-0.2,1.3,0c0.3,0.1,0.6,0,0.8-0.3c0.2-0.4,0.4-0.8,0.5-1.2c0.1-0.3-0.1-0.6-0.4-0.7C14.4,9.4,14,8.7,14,8z M8.4,10.5C7,10.7,5.7,9.8,5.5,8.4C5.3,7,6.2,5.7,7.6,5.5c1.4-0.2,2.6,0.7,2.9,2.1c0,0.3,0,0.5,0,0.8C10.3,9.5,9.5,10.3,8.4,10.5z"></path></svg>