<svg width="20" height="12" class="svg-icon svg-icon--sendMail-s is-dark" xmlns="http://www.w3.org/2000/svg" viewBox="0 0 20 12" xmlns:xlink="http://www.w3.org/1999/xlink"><g transform="translate(0.5)"><g transform="translate(-623 -275)"><path d="M633.4,281l-4.24-2.585a1.3,1.3,0,0,1,.678-2.415h7.726a1.3,1.3,0,0,1,.613,2.452Z" fill="none" stroke="#050d18" stroke-width="1.175" stroke-linecap="round" stroke-linejoin="round" class="is-stroke" stroke-miterlimit="10" transform="translate(.5 -1)"></path><line x2="2" transform="translate(625 278.5)" stroke-miterlimit="10" fill="none" stroke="#050d18" stroke-width="1.175" stroke-linecap="round" stroke-linejoin="round" class="is-stroke"></line><line x2="2" transform="translate(624 280.5)" stroke-miterlimit="10" fill="none" stroke="#050d18" stroke-width="1.175" stroke-linecap="round" stroke-linejoin="round" class="is-stroke"></line><path d="M628,284h9.979a1,1,0,0,0,.995-.878l.749-5.995a1,1,0,0,0-.995-1.127h-9.979a1,1,0,0,0-.995.878l-.749,5.995A1,1,0,0,0,628,284Z" fill="none" stroke="#050d18" stroke-width="1.175" stroke-linecap="round" stroke-linejoin="round" class="is-stroke" stroke-miterlimit="10" transform="translate(.5 -.5)"></path></g></g></svg>