<svg width="39" height="39" class="svg-icon svg-icon--flame-s is-solid has-stroke" xmlns="http://www.w3.org/2000/svg" viewBox="0 0 16 16" xmlns:xlink="http://www.w3.org/1999/xlink"><linearGradient class="gradientCountur" id="#F77023" x1="8.4413" y1="0.4108" x2="8.4413" y2="14.359" gradientUnits="userSpaceOnUse"><stop class="stop-color-top systemReader:[@media(prefers-color-scheme:dark)]:group-[.is-in-progress]/flagicon:[stop-color:#FFFFFF00!important]" offset="0"></stop><stop class="stop-color-bottom" offset="1"></stop></linearGradient><linearGradient class="gradientFlame" id="gradientFlame--518b1n" x1="8.4413" y1="0.4108" x2="8.4413" y2="14.359" gradientUnits="userSpaceOnUse"><stop class="stop-color-top systemReader:[@media(prefers-color-scheme:dark)]:group-[.is-in-progress]/flagicon:[stop-color:#FFFFFF00!important]" offset="0"></stop><stop class="stop-color-bottom" offset="1"></stop></linearGradient><path id="flame" fill="#F77023" class="is-flame" d="M12.6,7.4c-0.3-0.6-0.7-1.1-1.2-1.5L11,5.5c0,0,0,0,0,0c0,0,0,0-0.1,0c0,0,0,0,0,0c0,0,0,0,0,0l-0.2,0.5C10.5,6.4,10.3,6.7,10,7c0,0,0,0-0.1,0c0,0,0,0-0.1,0c0,0,0,0,0-0.1c0.1-0.8-0.2-1.7-0.8-2.7C8.6,3.4,8,2.8,7.2,2.3L6.6,2C6.5,2,6.4,2,6.4,2.1l0,0.6c0,0.4,0,0.8-0.2,1.2C6.1,4.3,5.9,4.7,5.6,5C5.4,5.2,5.2,5.4,4.9,5.6c-0.6,0.4-1.1,1-1.4,1.6C3.2,7.9,3,8.6,3,9.3c0,0.6,0.1,1.2,0.4,1.8c0.3,0.6,0.6,1.1,1.1,1.5c0.5,0.4,1,0.8,1.6,1C6.7,13.9,7.3,14,8,14c0.7,0,1.3-0.1,1.9-0.4c0.6-0.2,1.1-0.6,1.6-1c0.5-0.4,0.8-0.9,1.1-1.5c0.3-0.6,0.4-1.2,0.4-1.8C13,8.7,12.9,8,12.6,7.4z"></path><path id="contour" fill="#F77023" class="is-static-background is-contour" d="M12.6,7.4c-0.3-0.6-0.7-1.1-1.2-1.5L11,5.5c0,0,0,0,0,0c0,0,0,0-0.1,0c0,0,0,0,0,0c0,0,0,0,0,0l-0.2,0.5C10.5,6.4,10.3,6.7,10,7c0,0,0,0-0.1,0s0,0-0.1,0c0,0,0,0,0-0.1c0.1-0.8-0.2-1.7-0.8-2.7C8.6,3.4,8,2.8,7.2,2.3L6.6,2C6.5,2,6.4,2,6.4,2.1l0,0.6c0,0.4,0,0.8-0.2,1.2C6.1,4.3,5.9,4.7,5.6,5C5.4,5.2,5.2,5.4,4.9,5.6c-0.6,0.4-1.1,1-1.4,1.6C3.2,7.9,3,8.6,3,9.3c0,0.6,0.1,1.2,0.4,1.8c0.3,0.6,0.6,1.1,1.1,1.5c0.5,0.4,1,0.8,1.6,1C6.7,13.9,7.3,14,8,14c0.7,0,1.3-0.1,1.9-0.4c0.6-0.2,1.1-0.6,1.6-1c0.5-0.4,0.8-0.9,1.1-1.5c0.3-0.6,0.4-1.2,0.4-1.8C13,8.7,12.9,8,12.6,7.4z M11.2,10.2c-0.1,0.4-0.2,0.9-0.5,1.2c-0.2,0.4-0.5,0.7-0.9,0.9c-0.4,0.3-0.8,0.4-1.2,0.5C8.2,13,7.7,13,7.2,12.9c-0.5-0.1-0.9-0.2-1.3-0.5c-0.4-0.2-0.7-0.5-1-0.9c-0.3-0.3-0.5-0.7-0.6-1.2C4.2,10,4.2,9.6,4.2,9.1c0.1-0.5,0.3-1,0.6-1.4C5.1,7.3,5.5,7,6,6.7c0.2-0.1,0.4-0.2,0.5-0.4c0.2-0.2,0.4-0.4,0.6-0.7c0.1-0.2,0.2-0.5,0.2-0.8l0-0.5c0-0.1,0.1-0.1,0.1-0.1l0.4,0.3C8.4,5.1,8.8,5.6,9,6.2c0.3,0.8,0.4,1.4,0.2,2c0,0,0,0,0,0c0,0,0,0,0,0c0,0,0,0,0,0c0.2-0.2,0.4-0.4,0.5-0.6l0.2-0.3c0,0,0,0,0,0c0,0,0,0,0,0c0,0,0,0,0,0c0,0,0,0,0,0l0.3,0.3C10.8,8,11,8.4,11.1,8.8C11.3,9.3,11.3,9.7,11.2,10.2z"></path></svg>