<svg width="16" height="16" class="svg-icon svg-icon--headphones-s is-dark" xmlns="http://www.w3.org/2000/svg" viewBox="0 0 16 16" xmlns:xlink="http://www.w3.org/1999/xlink"><path fill="none" stroke="#050d18" stroke-width="1.175" stroke-linecap="round" stroke-linejoin="round" stroke-miterlimit="10" class="is-stroke is-dynamic-background st0" d="M12.5,7.5V6c0-2.5-2-4.5-4.5-4.5S3.5,3.5,3.5,6v1.5"></path><path fill="none" stroke="#050d18" stroke-width="1.175" stroke-linecap="round" stroke-linejoin="round" stroke-miterlimit="10" class="is-stroke is-dynamic-background st0" d="M4.5,13h-1c-0.6,0-1-0.4-1-1V8.5c0-0.6,0.4-1,1-1h1c0.6,0,1,0.4,1,1V12C5.5,12.6,5.1,13,4.5,13z"></path><path fill="none" stroke="#050d18" stroke-width="1.175" stroke-linecap="round" stroke-linejoin="round" stroke-miterlimit="10" class="is-stroke is-dynamic-background st0" d="M12.5,13h-1c-0.6,0-1-0.4-1-1V8.5c0-0.6,0.4-1,1-1h1c0.6,0,1,0.4,1,1V12C13.5,12.6,13.1,13,12.5,13z"></path><path fill="none" stroke="#050d18" stroke-width="1.175" stroke-linecap="round" stroke-linejoin="round" stroke-miterlimit="10" class="is-stroke is-dynamic-background st0" d="M14.5,12L14.5,12c-0.6,0-1-0.4-1-1V9.5c0-0.6,0.4-1,1-1h0c0.6,0,1,0.4,1,1V11C15.5,11.6,15.1,12,14.5,12z"></path><path fill="none" stroke="#050d18" stroke-width="1.175" stroke-linecap="round" stroke-linejoin="round" stroke-miterlimit="10" class="is-stroke st0" d="M1.5,12L1.5,12c-0.6,0-1-0.4-1-1V9.5c0-0.6,0.4-1,1-1h0c0.6,0,1,0.4,1,1V11C2.5,11.6,2.1,12,1.5,12z"></path></svg>