<svg width="30" height="30" class="svg-icon svg-icon--LingQIconUK svg-icon--LingQIcon" xmlns="http://www.w3.org/2000/svg" viewBox="0 0 220 220" xmlns:xlink="http://www.w3.org/1999/xlink"><path fill="#050d18" class="is-fill is-dynamic-background" d="M137.5,20.3h0s-67,0-67,0h0c-12.5.7-24.2,6.2-32.8,15.3-8.6,9.1-13.4,21.1-13.4,33.6v.7c0,5,.4,10.7,1.1,16,.7,5.3,1.8,10.2,3.4,13.4,3,6.4,7.3,12.1,12.6,16.7l85.7,91.7c.6.7,1.3,1.2,2.1,1.6h0c.8.4,1.7.6,2.6.6.9,0,1.7-.1,2.5-.4.8-.3,1.5-.8,2.2-1.4.6-.6,1.1-1.3,1.5-2.1h0c.3-.8.5-1.6.5-2.5h0v-77.2c12.2-.8,23.6-6.1,32-15,8.7-9.1,13.4-22.3,13.4-38s-4.8-29-13.4-38c-8.6-9-20.4-14.4-32.9-15ZM135.7,104c6.5-.4,12.5-3.3,17-8.1,4.4-4.7,6.7-13.1,6.7-22.1s-2.7-17.3-7.2-21.9c-4.5-4.7-10.7-7.4-17.2-7.7h-62.8c-6.5.5-12.5,3.5-16.9,8.2-2.2,2.4-4,4.8-5.1,7.6-1.2,2.8-1.8,5.9-1.8,9.9v.7c0,4.4.1,7.9.3,10.5.2,2.6.5,4.4.8,5.4,2.2,6.9,7.4,12.3,12.5,17.6.2.2.5.5.7.7l52.9,56.4v-45.5h0c0-3.2,1.3-6.2,3.5-8.4,2.2-2.2,5.2-3.5,8.4-3.5h0s8.1,0,8.1,0Z" fill-rule="evenodd"></path></svg>