<svg width="13" height="16" class="svg-icon svg-icon--notificationBell-s is-dark" xmlns="http://www.w3.org/2000/svg" viewBox="0 0 12 16" xmlns:xlink="http://www.w3.org/1999/xlink">
  <g transform="translate(7 2) rotate(180)" fill="none" stroke="#050d18" stroke-width="1.175" stroke-linecap="round" stroke-linejoin="round" class="is-stroke">
    <rect x="0.5" y="0.5" width="1" height="1" rx="0.5" fill="none"></rect>
  </g>
  <g transform="translate(-498 -191.5)" fill="none" stroke-miterlimit="10">
    <path d="M503,206h0a1,1,0,0,0,1,1h0a1,1,0,0,0,1-1h-2Z" stroke="#050d18" class="is-stroke" stroke-width="1.175"></path>
  </g>
  <g transform="translate(-498 -191.5)" fill="none" stroke-miterlimit="10">
    <path d="M507,199h-6l-1.927,2.891A2,2,0,0,0,500.737,205h6.526a2,2,0,0,0,1.664-3.109Z" fill="none" stroke="#050d18" stroke-width="1.175" stroke-linecap="round" stroke-linejoin="round" class="is-stroke"></path>
  </g>
  <g transform="translate(3 1.5)" fill="none" stroke="#050d18" class="is-stroke" stroke-miterlimit="10" stroke-width="1.175">
    <path d="M3,0H3A3,3,0,0,1,6,3V6A0,0,0,0,1,6,6H0A0,0,0,0,1,0,6V3A3,3,0,0,1,3,0Z" stroke="#050d18" fill="none" stroke-width="1.175" stroke-linecap="round" stroke-linejoin="round" class="is-stroke"></path>
  </g>
  <!-- Red notification spot -->
  <circle
    cx="10"
    cy="2.5"
    r="3"
    fill="#ff3b30"
    stroke="#ff3b30"
    stroke-width="1.175"
    stroke-linecap="round"
    stroke-linejoin="round"
    class="is-stroke is-indicator">
  </circle>
</svg>
